<?xml version="1.0" standalone="no"?>
<!DOCTYPE svg PUBLIC "-//W3C//DTD SVG 20010904//EN"
 "http://www.w3.org/TR/2001/REC-SVG-20010904/DTD/svg10.dtd">
<svg version="1.0" xmlns="http://www.w3.org/2000/svg"
 width="1280.000000pt" height="1118.000000pt" viewBox="0 0 1280.000000 1118.000000"
 preserveAspectRatio="xMidYMid meet">

<g transform="translate(0.000000,1118.000000) scale(0.100000,-0.100000)"
fill="#000000" stroke="none">
<path d="M8660 9430 c-181 -15 -393 -61 -574 -126 -95 -34 -371 -171 -486
-240 -111 -68 -245 -165 -362 -264 -63 -54 -88 -69 -103 -65 -80 26 -192 48
-323 65 -641 84 -1266 -109 -1769 -545 -88 -77 -257 -266 -334 -374 -224 -317
-362 -698 -400 -1106 -36 -394 58 -847 249 -1208 l47 -87 -347 -348 c-190
-191 -366 -375 -391 -410 -251 -347 -74 -828 343 -933 79 -20 242 -17 310 5
137 45 153 59 561 463 212 211 391 383 397 383 7 0 52 -20 101 -45 97 -48 317
-125 450 -156 309 -72 686 -71 1005 3 849 197 1512 893 1671 1754 54 292 53
541 -2 817 l-25 128 49 55 c125 143 160 188 242 309 271 400 405 758 441 1181
21 244 -8 430 -84 539 -58 83 -147 148 -244 178 -89 28 -264 39 -422 27z m379
-227 c67 -19 92 -43 120 -118 41 -108 54 -238 47 -470 -6 -235 -23 -368 -62
-477 -39 -109 -143 -318 -223 -447 -158 -252 -211 -312 -804 -908 l-559 -561
17 -32 c9 -18 15 -34 13 -36 -2 -2 -41 -42 -87 -89 l-85 -85 -175 174 c-97 95
-186 179 -199 185 -35 18 -86 -14 -90 -57 -3 -32 19 -61 121 -164 15 -15 27
-31 27 -36 0 -20 -187 -176 -239 -201 -48 -22 -68 -26 -146 -25 -61 1 -103 7
-130 18 -29 13 -176 154 -517 494 -438 439 -477 480 -483 517 -3 22 -2 51 2
63 11 28 302 332 318 332 7 0 180 -169 384 -376 205 -206 382 -379 394 -383
30 -12 75 13 83 44 3 14 1 38 -5 53 -6 15 -178 193 -382 396 -366 364 -370
368 -352 389 31 35 1246 1242 1293 1284 172 154 505 357 700 428 94 34 344 95
430 104 109 13 527 1 589 -16z m-3179 -1364 c107 -7 198 -15 203 -19 7 -6
-395 -401 -533 -524 -119 -106 -223 -156 -405 -196 -156 -34 -235 -57 -321
-91 -196 -78 -224 -84 -224 -46 0 26 79 106 340 343 96 87 207 188 245 224
116 107 277 244 320 270 41 25 113 48 155 49 14 1 113 -4 220 -10z m-553 -925
c-3 -3 -12 -4 -19 -1 -8 3 -5 6 6 6 11 1 17 -2 13 -5z m106 -16 c9 0 17 -3 17
-9 0 -13 -39 -10 -80 6 l-35 14 40 -6 c22 -4 48 -6 58 -5z m2377 -668 c0 -5
-5 -10 -11 -10 -5 0 -7 5 -4 10 3 6 8 10 11 10 2 0 4 -4 4 -10z m-2075 -246
c21 -14 30 -14 56 -4 30 13 31 12 112 -66 45 -43 83 -80 85 -81 2 -1 -2 -17
-9 -37 -12 -32 -11 -38 15 -74 15 -22 63 -74 107 -117 l79 -77 -100 -104 c-96
-100 -112 -125 -90 -139 19 -12 -2 -49 -52 -96 -43 -41 -54 -46 -93 -45 -35 1
-49 -5 -74 -28 -38 -37 -47 -62 -31 -92 14 -25 6 -35 -111 -142 -44 -40 -48
-41 -78 -31 l-33 12 -431 -430 c-396 -394 -438 -433 -504 -465 -98 -49 -194
-65 -285 -50 -154 27 -280 122 -347 261 -35 74 -36 79 -36 191 0 110 2 118 35
190 33 72 52 93 468 512 l435 437 -6 44 -6 43 79 79 c77 77 80 78 105 65 23
-12 30 -12 53 0 14 9 35 30 45 48 17 28 18 37 8 60 -12 25 -9 29 53 90 64 62
67 64 105 57 38 -6 43 -4 92 42 29 26 72 69 97 95 l45 48 94 -90 c52 -50 105
-97 118 -106z m2101 -51 c24 -352 17 -382 -135 -553 -32 -36 -100 -112 -151
-170 -166 -188 -542 -590 -560 -600 -10 -6 -26 -10 -35 -10 -23 0 -14 50 35
205 21 66 53 185 70 265 35 161 83 277 152 369 40 55 596 621 609 621 4 0 11
-57 15 -127z"/>
<path d="M7832 8563 c-174 -35 -325 -155 -410 -324 -48 -95 -62 -157 -62 -268
0 -158 63 -307 175 -416 84 -83 163 -128 272 -155 216 -54 431 6 580 163 183
194 223 449 106 685 -47 96 -118 172 -159 172 -36 0 -64 -27 -64 -61 0 -13 22
-57 50 -97 84 -125 112 -232 90 -352 -37 -203 -194 -359 -381 -379 -103 -11
-177 1 -269 45 -174 81 -274 252 -257 438 8 85 37 163 86 233 66 94 149 149
271 179 36 9 75 22 86 29 49 31 34 108 -23 117 -16 2 -57 -2 -91 -9z"/>
<path d="M7850 8284 c-96 -30 -186 -127 -178 -191 2 -14 15 -35 29 -46 33 -24
49 -16 127 55 30 26 59 48 66 48 23 0 66 52 66 79 0 29 -32 71 -53 70 -7 0
-32 -7 -57 -15z"/>
<path d="M8598 4163 c-47 -37 -120 -94 -162 -126 -42 -32 -76 -62 -76 -66 0
-5 41 -12 90 -15 84 -7 90 -9 90 -30 0 -60 -119 -801 -156 -976 -26 -119 -59
-164 -133 -181 -91 -20 -171 26 -171 98 0 19 20 148 45 287 25 138 51 287 58
331 12 73 15 80 38 83 13 1 39 5 56 8 l33 5 -68 135 c-37 74 -72 133 -77 132
-25 -7 -343 -263 -333 -269 6 -4 28 -4 49 -2 21 3 44 3 52 0 16 -6 18 12 -34
-277 -62 -352 -71 -412 -71 -485 -1 -123 39 -187 147 -237 45 -21 65 -23 200
-23 149 0 150 0 221 33 86 40 142 95 182 177 36 73 53 139 91 360 47 274 120
685 133 752 l11 62 56 6 c31 3 70 9 87 13 l31 7 -139 130 c-76 72 -144 131
-151 133 -7 1 -51 -28 -99 -65z"/>
<path d="M3720 3599 c-94 -11 -152 -30 -220 -73 -135 -85 -183 -286 -97 -409
34 -50 97 -86 207 -121 164 -52 211 -81 225 -137 5 -21 0 -34 -23 -60 -28 -31
-35 -34 -104 -37 -110 -6 -157 22 -161 94 l-2 39 -125 0 -125 0 -8 -55 c-19
-124 33 -219 141 -261 69 -26 282 -38 377 -20 78 14 176 63 213 105 45 52 74
138 76 226 1 65 -3 81 -26 121 -46 78 -93 106 -261 153 -101 29 -122 39 -159
74 -30 28 -37 74 -15 103 24 31 75 49 141 49 55 0 69 -4 96 -27 28 -23 31 -31
28 -67 -3 -23 -8 -48 -12 -57 -9 -20 34 -29 140 -29 82 0 105 13 123 69 17 51
13 131 -8 176 -37 81 -117 129 -243 145 -82 11 -76 11 -178 -1z"/>
<path d="M4550 3480 c-8 -5 -59 -28 -112 -51 -53 -22 -102 -47 -108 -55 -11
-13 -25 -86 -86 -447 -29 -173 -27 -224 9 -279 51 -75 140 -104 297 -96 140 7
219 47 285 142 31 45 75 155 75 187 0 6 -48 8 -116 7 l-116 -3 -14 -40 c-28
-82 -110 -120 -165 -76 -21 17 -24 28 -23 77 1 31 7 90 14 130 l13 74 201 2
201 3 6 45 c3 25 9 69 13 98 l7 52 -196 0 c-107 0 -195 1 -195 3 0 1 9 54 20
117 11 63 20 116 20 118 0 5 -16 1 -30 -8z"/>
<path d="M5201 3252 c-63 -24 -135 -93 -165 -157 -31 -65 -80 -330 -71 -384
17 -102 82 -153 204 -160 94 -4 136 9 195 60 26 23 48 40 49 38 1 -2 9 -17 17
-34 21 -41 79 -68 145 -67 53 0 136 29 149 51 4 6 10 42 13 81 l6 70 -47 0
c-32 0 -48 5 -52 15 -3 8 1 56 10 107 41 235 56 325 62 351 l6 27 -106 0 c-88
0 -106 -3 -106 -15 0 -20 -12 -19 -62 7 -57 30 -183 35 -247 10z m231 -200
c19 -19 -26 -253 -53 -278 -27 -24 -90 -29 -129 -9 l-33 17 5 88 c6 106 28
157 78 183 37 19 112 19 132 -1z"/>
<path d="M6086 3255 c-90 -35 -159 -105 -191 -195 -25 -70 -58 -304 -51 -354
8 -54 39 -102 85 -133 19 -13 29 -23 22 -23 -24 0 -120 -102 -137 -146 -33
-88 3 -178 91 -223 44 -23 62 -26 155 -26 88 0 113 4 154 23 111 51 194 151
233 278 19 60 70 331 131 687 l19 107 -104 0 c-85 0 -103 -3 -103 -15 0 -20
-5 -19 -59 7 -58 28 -187 35 -245 13z m203 -196 c36 -13 35 -4 15 -121 -21
-125 -34 -160 -64 -175 -46 -23 -120 -12 -142 21 -21 31 10 198 44 241 34 44
85 55 147 34z m-64 -560 c-29 -109 -60 -149 -119 -149 -63 0 -85 62 -45 126
22 35 54 62 129 105 l45 27 3 -23 c2 -13 -4 -51 -13 -86z"/>
<path d="M6915 3256 c-95 -24 -175 -84 -214 -161 -28 -56 -70 -257 -71 -338 0
-76 19 -119 70 -156 57 -41 126 -55 258 -49 99 4 117 8 177 37 68 34 111 80
141 150 28 68 26 69 -93 73 -63 2 -110 -1 -115 -7 -4 -5 -16 -20 -26 -33 -25
-33 -87 -39 -129 -13 -31 19 -33 24 -33 76 l0 55 219 0 c200 0 220 2 225 18 3
9 10 50 17 91 20 132 -30 222 -142 255 -63 19 -212 20 -284 2z m167 -193 c11
-10 18 -30 18 -55 l0 -38 -94 0 c-54 0 -98 4 -101 10 -9 15 30 75 57 88 35 17
99 14 120 -5z"/>
<path d="M9171 3258 c-19 -5 -44 -16 -55 -24 -17 -12 -22 -12 -37 2 -13 11
-38 14 -114 12 l-99 -3 -17 -95 c-9 -52 -27 -149 -38 -215 -12 -66 -46 -258
-76 -426 -30 -168 -55 -314 -55 -323 0 -15 13 -16 117 -14 l117 3 8 36 c4 20
20 113 36 208 17 95 32 174 34 176 2 2 26 -7 54 -21 86 -43 207 -33 289 24 77
54 113 129 145 307 33 182 24 251 -42 312 -48 46 -182 66 -267 41z m54 -210
c27 -21 27 -24 22 -92 -13 -153 -60 -214 -154 -203 -66 7 -69 13 -54 115 22
157 29 180 59 191 47 17 97 13 127 -11z"/>
</g>
</svg>
